# xmcd CD database file
#
# Track frame offsets:
#	150
#	19950
#	42953
#	58539
#	73528
#	89566
#	116625
#	133632
#	153558
#	167576
#
# Disc length: 2432 seconds
#
# Revision: 0
# Processed by: cddbd v1.5.1PL0 Copyright (c) Steve Scherf et al.
# Submitted via: CDex 1.51
#
DISCID=86097e0a
DTITLE=Broken Home - Broken Home
DYEAR=2003
DGENRE=Rock
TTITLE0=Stop Looking at Me
TTITLE1=Shooting All the Lights Out
TTITLE2=No Chance
TTITLE3=Death of Gog
TTITLE4=Mona Lisa
TTITLE5=Shot Over Hill
TTITLE6=Run Away from Home
TTITLE7=Jerusalem
TTITLE8=Bird Has Flown
TTITLE9=China in Your Heart
EXTD=YEAR: 2003
EXTT0=
EXTT1=
EXTT2=
EXTT3=
EXTT4=
EXTT5=
EXTT6=
EXTT7=
EXTT8=
EXTT9=
PLAYORDER=
